<?xml version="1.0" encoding="utf-8"?>
<!-- Generator: Adobe Illustrator 19.2.1, SVG Export Plug-In . SVG Version: 6.00 Build 0)  -->
<svg version="1.1" id="Layer_1" xmlns="http://www.w3.org/2000/svg" xmlns:xlink="http://www.w3.org/1999/xlink" x="0px" y="0px"
	 viewBox="0 0 83.8 83.3" style="enable-background:new 0 0 83.8 83.3;" xml:space="preserve">
<style type="text/css">
	.st0{fill:none;stroke:#B427AC;stroke-miterlimit:10;}
	.st1{enable-background:new    ;}
	.st2{fill:#80FFE7;}
	.st3{fill:none;stroke:#3169E1;stroke-miterlimit:10;}
	.st4{fill:none;stroke:#FFFFFF;stroke-width:0.15;stroke-miterlimit:10;}
	.st5{fill:none;stroke:#11D7BC;stroke-width:2;stroke-miterlimit:10;}
	.st6{fill:none;stroke:#FFFFFF;stroke-width:0.5;stroke-miterlimit:10;}
</style>
<title>flexcoin</title>
<g>
	<g id="Layer_1_1_">
		<g id="flexcoin">
			<circle class="st0" cx="41.9" cy="41.6" r="25"/>
			
				<image style="overflow:visible;opacity:0.75;enable-background:new    ;" width="121" height="217" xlink:href="35C2FFF8.png"  transform="matrix(0.2321 0 0 0.2312 27.92 19.11)">
			</image>
			<g class="st1">
				<path class="st2" d="M34,55.3V28.7h17.4v2.9H37.3v8.6h13.8v2.9H37.3v12.1H34z"/>
			</g>
		</g>
		<g id="mute">
			
				<image style="overflow:visible;opacity:0.75;enable-background:new    ;" width="305" height="305" xlink:href="35C2FFF9.png"  transform="matrix(0.2361 0 0 0.2361 6 5.58)">
			</image>
			<circle class="st3" cx="42" cy="41.6" r="29.5"/>
			<circle class="st4" cx="42" cy="41.6" r="29.5"/>
			
				<image style="overflow:visible;enable-background:new    ;" width="834" height="838" xlink:href="35C2FFFF.png"  transform="matrix(0.2391 0 0 0.2377 -57.5 -57.92)">
			</image>
			
				<image style="overflow:visible;opacity:0.75;enable-background:new    ;" width="363" height="363" xlink:href="35C2FFFA.png"  transform="matrix(0.2374 0 0 0.2374 -1 -1.42)">
			</image>
			<circle class="st5" cx="42" cy="41.6" r="36"/>
			<circle class="st6" cx="42" cy="41.6" r="36"/>
		</g>
	</g>
</g>
</svg>
