<?xml version="1.0" encoding="utf-8"?>
<!-- Generator: Adobe Illustrator 19.2.1, SVG Export Plug-In . SVG Version: 6.00 Build 0)  -->
<svg version="1.1" id="Layer_1" xmlns="http://www.w3.org/2000/svg" xmlns:xlink="http://www.w3.org/1999/xlink" x="0px" y="0px"
	 viewBox="0 0 663 270.7" style="enable-background:new 0 0 663 270.7;" xml:space="preserve">
<style type="text/css">
	.st0{fill:#3D389B;}
	.st1{fill:none;stroke:url(#SVGID_1_);stroke-width:5;stroke-miterlimit:10;}
	.st2{opacity:0.82;clip-path:url(#SVGID_3_);}
	.st3{fill:none;stroke:#FFFFFF;stroke-linejoin:bevel;stroke-miterlimit:10;}
	.st4{opacity:0.35;fill:#0D0068;}
	.st5{fill:none;stroke:url(#SVGID_4_);stroke-width:5;stroke-miterlimit:10;}
	.st6{fill:#FFFFFF;}
</style>
<g id="Магазин">
	<rect x="19.8" y="140" class="st0" width="621.9" height="108.4"/>
	<g>
		
			<image style="overflow:visible;opacity:0.72;" width="688" height="298" xlink:href="5EEF1D09.png"  transform="matrix(1 0 0 1 -11 -12.33)">
		</image>
		<g>
			<linearGradient id="SVGID_1_" gradientUnits="userSpaceOnUse" x1="19.2642" y1="136.7421" x2="646.1547" y2="136.7421">
				<stop  offset="1.076729e-007" style="stop-color:#E41073"/>
				<stop  offset="1" style="stop-color:#FF9115"/>
			</linearGradient>
			<rect x="21.8" y="21.1" class="st1" width="621.9" height="231.3"/>
		</g>
	</g>
	<g>
		<defs>
			<rect id="SVGID_2_" x="19.8" y="17.1" width="621.9" height="231.3"/>
		</defs>
		<clipPath id="SVGID_3_">
			<use xlink:href="#SVGID_2_"  style="overflow:visible;"/>
		</clipPath>
		<g class="st2">
			<image style="overflow:visible;" width="334" height="322" xlink:href="5EEF1D0B.png"  transform="matrix(1 0 0 1 337 -23.33)">
			</image>
		</g>
		<g class="st2">
			
				<image style="overflow:visible;opacity:0.75;" width="262" height="250" xlink:href="5EEF1D0E.png"  transform="matrix(1 0 0 1 373 12.67)">
			</image>
			<g>
				<g>
					<polygon class="st3" points="405.1,71.4 485.8,44.2 619.3,82.8 563.6,111.3 					"/>
					<polygon class="st3" points="570.4,190.2 441.1,162.4 405.5,71.5 563.2,111 					"/>
					<polygon class="st3" points="618.7,82.6 618.9,167.4 570.4,190.2 563.2,111 					"/>
					<polygon class="st3" points="388.3,54.6 472.6,28.9 479.7,30.3 485.4,43.9 405.5,71.7 398.3,58.2 					"/>
					<polygon class="st3" points="443.6,162.9 464.7,195.9 476.8,190.2 460.2,166.5 					"/>
					<polygon class="st3" points="479.7,170.7 490.4,185.9 476.8,190.2 460.4,166.7 					"/>
					<polygon class="st3" points="510.5,177.3 490.4,185.9 479.7,171 					"/>
					<polygon class="st3" points="388.3,54.6 396.9,59.6 428.3,159.5 421.9,177.4 428.3,193.8 449.7,204.5 464.7,195.9 443.3,163.1 
						441.1,163.1 405.5,71.7 398.3,58.2 					"/>
					<polygon class="st3" points="564.7,242.3 550.4,231.6 449.7,204.5 464.7,195.9 476.8,190.2 490.4,185.9 510.4,177.4 
						570.4,190.2 611.1,201.7 612.5,209.5 					"/>
					<polygon class="st3" points="483.3,204.5 464.7,195.9 449.7,204.5 472.2,210.6 					"/>
					<polygon class="st3" points="476.8,190.2 493.3,198.8 483.3,204.5 464.7,195.9 					"/>
					<polygon class="st3" points="490.4,185.9 504,192.4 493.3,198.8 476.8,190.2 					"/>
					<polygon class="st3" points="524.1,180.3 504,192.4 490.4,185.9 510.4,177.4 					"/>
					<polygon class="st3" points="493.3,198.8 519.7,205.9 507.9,211.9 483.3,204.5 					"/>
					<polygon class="st3" points="504,192.4 529.7,198.1 519.7,205.9 493.3,198.8 					"/>
					<polygon class="st3" points="517.1,184.5 541.8,191.7 529.7,198.1 504,192.4 					"/>
					<polygon class="st3" points="472.4,210.6 483.3,204.5 508.3,211.6 501.5,218.5 					"/>
					<polygon class="st3" points="519.7,205.9 547.5,213.1 537.5,221.6 507.9,211.9 					"/>
					<polygon class="st3" points="501.8,218.8 533,227 537.5,221.6 508.3,211.6 					"/>
					<polygon class="st3" points="529.7,198.1 558.9,204.5 547.5,213.1 519.7,205.9 					"/>
					<polygon class="st3" points="541.8,191.7 547.5,185.3 524,180.2 516.8,184.5 					"/>
					<polygon class="st3" points="558.9,204.5 566.1,198.8 541.8,191.7 529.7,198.1 					"/>
					<polygon class="st3" points="533.2,226.6 550.4,231.6 558.2,228.1 537.5,221.6 					"/>
					<polygon class="st3" points="547.5,213.1 570.4,219.5 557.8,228.3 537.5,221.6 					"/>
					<polygon class="st3" points="547.5,185.2 570.4,190.2 566.1,198.8 541.8,191.7 					"/>
					<polygon class="st3" points="558.9,204.5 581.8,210.9 570.4,219.5 547.5,213.1 					"/>
					<polygon class="st3" points="566.1,198.8 589.6,204.5 581.8,210.9 558.9,204.5 					"/>
					<polygon class="st3" points="570.4,190.2 595.3,197.2 589.6,204.5 566.1,198.8 					"/>
					<polygon class="st3" points="558.2,228.1 572.2,237.2 564.7,242.3 550.4,231.6 					"/>
					<polygon class="st3" points="570.4,219.5 584.6,228.6 571.9,236.9 558.2,228.1 					"/>
					<polygon class="st3" points="581.8,210.9 597,220.2 584.6,228.1 570.4,219.5 					"/>
					<polygon class="st3" points="589.6,204.5 606.6,213.6 596.8,220.2 581.8,210.9 					"/>
					<polygon class="st3" points="442,200.6 439.7,205.2 441.9,220.2 444.7,223.1 449,223.1 449,220.2 449.7,204.5 					"/>
					<polygon class="st3" points="542.8,229.9 546.1,243.1 549.7,246.6 552.5,246.6 554,244.5 554,234.3 550.4,231.6 					"/>
					<polygon class="st3" points="439.7,205.2 440.2,205.2 449.7,204.5 442.4,200.8 					"/>
					<polygon class="st3" points="444.7,223.1 449.7,204.5 439.7,205.2 441.8,219.8 					"/>
					<polygon class="st3" points="449,223.1 449.7,205.2 444.7,223.1 					"/>
					<polygon class="st3" points="542.5,229.5 550.4,242.3 550.4,231.6 					"/>
					<polygon class="st3" points="551.1,246.6 550.4,242.3 542.5,229.5 546.1,243.1 549.7,246.6 					"/>
					<polygon class="st3" points="405.5,71.7 490.4,173.2 441.1,163.1 					"/>
					<polygon class="st3" points="563.2,111 490.4,173.1 405.5,71.7 					"/>
					<polygon class="st3" points="563.2,111 618.8,130.8 618.9,82.4 					"/>
					<polygon class="st3" points="618.9,166.7 563.2,111 618.9,131 					"/>
					<polygon class="st3" points="531.1,103.1 490.4,173.1 563.2,111 					"/>
					<polygon class="st3" points="490.4,173.1 546.8,175.2 563.2,111 					"/>
					<polygon class="st3" points="499,95.3 498.7,109.6 497.8,160.4 531.1,103.1 					"/>
					<polygon class="st3" points="460.4,85.3 448.9,123.5 490.4,173.1 					"/>
					<polyline class="st3" points="546.8,175.2 570.4,190.2 490.4,173.1 460.2,85.2 436.8,109.1 441.1,163.1 405.5,71.7 					"/>
					<path class="st3" d="M485.4,43.9v47.6V43.9z"/>
				</g>
			</g>
		</g>
	</g>
	<g>
		
			<image style="overflow:visible;opacity:0.72;" width="688" height="298" xlink:href="5EEF1D0F.png"  transform="matrix(1 0 0 1 -13 -16.33)">
		</image>
		<g>
			<rect x="19.8" y="17.1" class="st4" width="621.9" height="231.3"/>
			<linearGradient id="SVGID_4_" gradientUnits="userSpaceOnUse" x1="17.2642" y1="132.7421" x2="644.1547" y2="132.7421">
				<stop  offset="2.153458e-007" style="stop-color:#49C0B8"/>
				<stop  offset="0.5018" style="stop-color:#5152A3"/>
				<stop  offset="0.991" style="stop-color:#C169AA"/>
			</linearGradient>
			<rect x="19.8" y="17.1" class="st5" width="621.9" height="231.3"/>
		</g>
	</g>
	<g>
		
			<image style="overflow:visible;opacity:0.5;" width="289" height="62" xlink:href="5EEF1D0A.png"  transform="matrix(1 0 0 1 33 79.67)">
		</image>
		<g>
			<g>
				<path class="st6" d="M38.1,122.5V85.4h7.4l12.9,18l13.1-18h7.2v37.1h-7.4v-25l-9.7,14.3h-6.2l-9.9-14.3v25H38.1z"/>
				<path class="st6" d="M83.6,122.5V96.6l11.1-11.2h22.2v37.1h-7.4v-11.1H91v11.1H83.6z M109.5,104V92.8H98.4l-7.4,7.5v3.7H109.5z"
					/>
				<path class="st6" d="M122.2,122.5V85.4h31.5v7.4h-24.1v29.7H122.2z"/>
				<path class="st6" d="M154.7,122.5V96.6l11.1-11.2H188v37.1h-7.4v-11.1h-18.5v11.1H154.7z M180.6,104V92.8h-11.1l-7.4,7.5v3.7
					H180.6z"/>
				<path class="st6" d="M195.9,122.5l-3.7-3.7v-7.4h7.4v3.7h18.5v-7.4H207v-7.4h11.1v-7.5h-18.5v3.7h-7.4v-7.4l3.7-3.8h26l3.7,3.8
					v11.1l-3.7,3.7l3.7,3.7v11.1l-3.7,3.7H195.9z"/>
				<path class="st6" d="M230.8,122.5V85.4h7.4v24.7l18.5-24.7h7.4v37.1h-7.4V97.8l-18.5,24.7H230.8z"/>
				<path class="st6" d="M269.4,122.5V85.4h7.4v14.9h18.5V85.4h7.4v37.1h-7.4v-14.8h-18.5v14.8H269.4z"/>
			</g>
		</g>
	</g>
	<g>
		<path class="st6" d="M44.2,181v-21.3h-7.6V157h18.2v2.7h-7.6V181H44.2z"/>
		<path class="st6" d="M64.2,181.4c-1.2,0-2.3-0.3-3.3-0.8c-1-0.5-1.9-1.3-2.6-2.3v9.3h-2.7v-24h2.7v2.6c0.6-0.9,1.5-1.6,2.5-2.2
			c1-0.6,2.2-0.8,3.4-0.8c1.2,0,2.2,0.2,3.1,0.6c0.9,0.4,1.8,1,2.4,1.8c0.7,0.8,1.2,1.7,1.6,2.9c0.4,1.1,0.6,2.4,0.6,3.8
			s-0.2,2.7-0.6,3.8c-0.4,1.1-0.9,2.1-1.6,2.9c-0.7,0.8-1.5,1.4-2.4,1.8C66.4,181.2,65.4,181.4,64.2,181.4z M63.5,179
			c0.9,0,1.6-0.2,2.3-0.5c0.7-0.3,1.3-0.8,1.8-1.4c0.5-0.6,0.8-1.3,1.1-2.1s0.4-1.7,0.4-2.7s-0.1-1.8-0.4-2.7
			c-0.3-0.8-0.6-1.5-1.1-2.1c-0.5-0.6-1.1-1.1-1.8-1.4c-0.7-0.3-1.5-0.5-2.3-0.5c-1.1,0-2.1,0.3-3,0.8c-0.9,0.5-1.7,1.2-2.1,2v7.8
			c0.5,0.8,1.2,1.4,2.1,2C61.4,178.7,62.5,179,63.5,179z"/>
		<path class="st6" d="M87.1,181v-2c-1.5,1.6-3.4,2.4-5.8,2.4c-0.7,0-1.5-0.1-2.2-0.4c-0.7-0.2-1.4-0.6-1.9-1.1
			c-0.6-0.5-1-1.1-1.4-1.8c-0.4-0.7-0.5-1.5-0.5-2.5c0-1,0.2-1.8,0.5-2.5c0.4-0.7,0.8-1.3,1.4-1.8c0.6-0.5,1.2-0.8,1.9-1.1
			c0.7-0.2,1.5-0.3,2.2-0.3c1.2,0,2.3,0.2,3.3,0.6c1,0.4,1.8,1,2.5,1.8v-3.1c0-1.2-0.4-2.1-1.2-2.7c-0.8-0.6-1.9-1-3.1-1
			c-2,0-3.8,0.8-5.3,2.4l-1.3-1.9c1.8-1.9,4.2-2.9,6.9-2.9c0.9,0,1.8,0.1,2.6,0.3s1.5,0.6,2.1,1c0.6,0.5,1.1,1.1,1.5,1.8
			c0.4,0.7,0.5,1.6,0.5,2.7v12H87.1z M82.3,179.5c1,0,1.9-0.2,2.7-0.5c0.9-0.4,1.5-0.9,2.1-1.6v-3.3c-0.5-0.7-1.2-1.3-2.1-1.6
			c-0.9-0.4-1.8-0.5-2.7-0.5c-1.3,0-2.3,0.4-3.1,1.1s-1.2,1.6-1.2,2.8c0,1.1,0.4,2,1.2,2.7C80,179.1,81.1,179.5,82.3,179.5z"/>
		<path class="st6" d="M98.4,181v-15h-5v-2.4h12.8v2.4h-5.1v15H98.4z"/>
		<path class="st6" d="M112.4,163.6v6.7h6.5c0.9,0,1.7,0.1,2.4,0.4c0.7,0.3,1.3,0.7,1.7,1.2c0.5,0.5,0.8,1.1,1,1.7
			c0.2,0.6,0.3,1.3,0.3,2c0,0.7-0.1,1.4-0.4,2.1c-0.2,0.7-0.6,1.2-1,1.7c-0.5,0.5-1,0.9-1.7,1.2c-0.7,0.3-1.5,0.4-2.4,0.4h-9.2
			v-17.4H112.4z M112.4,172.7v5.9h6.2c1,0,1.7-0.3,2.2-0.8c0.5-0.5,0.8-1.3,0.8-2.1c0-0.8-0.2-1.5-0.7-2.1c-0.5-0.6-1.2-0.8-2.3-0.8
			H112.4z"/>
		<path class="st6" d="M143.9,181.4c-1.8,0-3.3-0.3-4.6-0.8c-1.3-0.5-2.4-1.2-3.3-2.1l1.3-1.7c0.8,0.8,1.8,1.3,2.9,1.7
			c1.1,0.4,2.3,0.6,3.6,0.6c1.6,0,2.8-0.3,3.7-0.8c0.9-0.6,1.4-1.3,1.4-2.2c0-0.5-0.1-1-0.4-1.3s-0.7-0.7-1.2-0.9
			c-0.5-0.2-1.1-0.4-1.7-0.5c-0.7-0.1-1.4-0.1-2.1-0.1h-3.9v-2.2h3.9c0.7,0,1.4-0.1,2-0.2c0.6-0.1,1.2-0.3,1.6-0.5
			c0.5-0.2,0.8-0.5,1.1-0.9c0.3-0.4,0.4-0.8,0.4-1.3c0-0.4-0.1-0.8-0.4-1.1c-0.3-0.3-0.6-0.6-1.1-0.9c-0.4-0.2-1-0.4-1.6-0.6
			c-0.6-0.1-1.3-0.2-2-0.2c-2.4,0-4.4,0.7-5.8,2.2l-1.4-1.7c0.8-0.8,1.8-1.5,3-2s2.6-0.8,4.1-0.8c1.2,0,2.3,0.1,3.2,0.3
			c1,0.2,1.8,0.5,2.5,0.9c0.7,0.4,1.3,0.9,1.7,1.5s0.6,1.2,0.6,2c0,0.6-0.2,1.2-0.5,1.7c-0.3,0.5-0.7,0.9-1.1,1.3
			c-0.5,0.3-1,0.6-1.5,0.8c-0.6,0.2-1.1,0.3-1.6,0.4c0.5,0,1,0.2,1.6,0.3c0.6,0.2,1.1,0.4,1.6,0.8s0.9,0.8,1.3,1.3
			c0.3,0.5,0.5,1.1,0.5,1.9c0,0.7-0.2,1.4-0.5,2s-0.9,1.2-1.6,1.6s-1.5,0.8-2.5,1.1C146.3,181.3,145.2,181.4,143.9,181.4z"/>
		<path class="st6" d="M167.1,181v-2c-1.5,1.6-3.4,2.4-5.8,2.4c-0.7,0-1.5-0.1-2.2-0.4c-0.7-0.2-1.4-0.6-1.9-1.1
			c-0.6-0.5-1-1.1-1.4-1.8c-0.4-0.7-0.5-1.5-0.5-2.5c0-1,0.2-1.8,0.5-2.5c0.4-0.7,0.8-1.3,1.4-1.8c0.6-0.5,1.2-0.8,1.9-1.1
			c0.7-0.2,1.5-0.3,2.2-0.3c1.2,0,2.3,0.2,3.3,0.6c1,0.4,1.8,1,2.5,1.8v-3.1c0-1.2-0.4-2.1-1.2-2.7c-0.8-0.6-1.9-1-3.1-1
			c-2,0-3.8,0.8-5.3,2.4l-1.3-1.9c1.8-1.9,4.2-2.9,6.9-2.9c0.9,0,1.8,0.1,2.6,0.3s1.5,0.6,2.1,1c0.6,0.5,1.1,1.1,1.5,1.8
			c0.4,0.7,0.5,1.6,0.5,2.7v12H167.1z M162.4,179.5c1,0,1.9-0.2,2.7-0.5c0.9-0.4,1.5-0.9,2.1-1.6v-3.3c-0.5-0.7-1.2-1.3-2.1-1.6
			c-0.9-0.4-1.8-0.5-2.7-0.5c-1.3,0-2.3,0.4-3.1,1.1s-1.2,1.6-1.2,2.8c0,1.1,0.4,2,1.2,2.7C160.1,179.1,161.1,179.5,162.4,179.5z"/>
		<path class="st6" d="M183.8,181.4c-1.2,0-2.3-0.3-3.3-0.8c-1-0.5-1.9-1.3-2.6-2.3v9.3h-2.7v-24h2.7v2.6c0.6-0.9,1.5-1.6,2.5-2.2
			c1-0.6,2.2-0.8,3.4-0.8c1.2,0,2.2,0.2,3.1,0.6c0.9,0.4,1.8,1,2.4,1.8c0.7,0.8,1.2,1.7,1.6,2.9c0.4,1.1,0.6,2.4,0.6,3.8
			s-0.2,2.7-0.6,3.8c-0.4,1.1-0.9,2.1-1.6,2.9c-0.7,0.8-1.5,1.4-2.4,1.8C186,181.2,185,181.4,183.8,181.4z M183.1,179
			c0.9,0,1.6-0.2,2.3-0.5c0.7-0.3,1.3-0.8,1.8-1.4c0.5-0.6,0.8-1.3,1.1-2.1s0.4-1.7,0.4-2.7s-0.1-1.8-0.4-2.7
			c-0.3-0.8-0.6-1.5-1.1-2.1c-0.5-0.6-1.1-1.1-1.8-1.4c-0.7-0.3-1.5-0.5-2.3-0.5c-1.1,0-2.1,0.3-3,0.8c-0.9,0.5-1.7,1.2-2.1,2v7.8
			c0.5,0.8,1.2,1.4,2.1,2C181,178.7,182.1,179,183.1,179z"/>
		<path class="st6" d="M206.7,181v-2c-1.5,1.6-3.4,2.4-5.8,2.4c-0.7,0-1.5-0.1-2.2-0.4c-0.7-0.2-1.4-0.6-1.9-1.1
			c-0.6-0.5-1-1.1-1.4-1.8c-0.4-0.7-0.5-1.5-0.5-2.5c0-1,0.2-1.8,0.5-2.5c0.4-0.7,0.8-1.3,1.4-1.8c0.6-0.5,1.2-0.8,1.9-1.1
			c0.7-0.2,1.5-0.3,2.2-0.3c1.2,0,2.3,0.2,3.3,0.6c1,0.4,1.8,1,2.5,1.8v-3.1c0-1.2-0.4-2.1-1.2-2.7c-0.8-0.6-1.9-1-3.1-1
			c-2,0-3.8,0.8-5.3,2.4l-1.3-1.9c1.8-1.9,4.2-2.9,6.9-2.9c0.9,0,1.8,0.1,2.6,0.3s1.5,0.6,2.1,1c0.6,0.5,1.1,1.1,1.5,1.8
			c0.4,0.7,0.5,1.6,0.5,2.7v12H206.7z M201.9,179.5c1,0,1.9-0.2,2.7-0.5c0.9-0.4,1.5-0.9,2.1-1.6v-3.3c-0.5-0.7-1.2-1.3-2.1-1.6
			c-0.9-0.4-1.8-0.5-2.7-0.5c-1.3,0-2.3,0.4-3.1,1.1s-1.2,1.6-1.2,2.8c0,1.1,0.4,2,1.2,2.7C199.6,179.1,200.7,179.5,201.9,179.5z"/>
		<path class="st6" d="M222.4,181.4c-1.3,0-2.5-0.2-3.6-0.7c-1.1-0.5-2-1.2-2.7-2.1c-0.7-0.9-1.3-1.9-1.7-3.2
			c-0.4-1.2-0.6-2.5-0.6-4c0-2.1,0.2-3.9,0.6-5.5c0.4-1.5,1-2.8,1.7-3.8s1.7-1.8,2.8-2.4c1.1-0.6,2.5-0.9,4-1.1
			c1-0.1,1.8-0.3,2.4-0.4s1.1-0.3,1.5-0.4c0.4-0.1,0.6-0.3,0.8-0.4c0.2-0.1,0.2-0.3,0.2-0.5h2.6c0,0.7-0.2,1.3-0.6,1.8
			c-0.4,0.5-1,0.8-1.7,1.1c-0.7,0.3-1.4,0.5-2.2,0.7c-0.8,0.2-1.6,0.3-2.3,0.4c-1.3,0.2-2.4,0.5-3.2,0.8c-0.9,0.4-1.6,0.8-2.1,1.3
			c-0.6,0.5-1,1.1-1.3,1.7c-0.3,0.6-0.5,1.3-0.7,2.1c0.3-0.5,0.7-1,1.1-1.4c0.4-0.4,0.9-0.8,1.5-1.2c0.6-0.3,1.2-0.6,1.8-0.8
			c0.7-0.2,1.4-0.3,2.1-0.3c1.2,0,2.3,0.2,3.3,0.7c1,0.5,1.9,1.1,2.6,2c0.7,0.8,1.3,1.8,1.6,2.9c0.4,1.1,0.6,2.3,0.6,3.5
			c0,1.2-0.2,2.4-0.6,3.5c-0.4,1.1-0.9,2.1-1.7,2.9c-0.7,0.8-1.6,1.5-2.7,2C225,181.2,223.8,181.4,222.4,181.4z M222.4,179
			c0.9,0,1.8-0.2,2.5-0.6c0.7-0.4,1.3-0.9,1.8-1.5c0.5-0.6,0.9-1.3,1.1-2.1c0.3-0.8,0.4-1.7,0.4-2.6c0-0.9-0.1-1.7-0.4-2.5
			c-0.3-0.8-0.6-1.5-1.1-2.1c-0.5-0.6-1.1-1.1-1.8-1.5c-0.7-0.4-1.5-0.6-2.5-0.6s-1.8,0.2-2.5,0.6s-1.3,0.9-1.8,1.5
			c-0.5,0.6-0.9,1.3-1.1,2.1c-0.3,0.8-0.4,1.6-0.4,2.5c0,0.9,0.1,1.8,0.4,2.6c0.3,0.8,0.6,1.5,1.1,2.1c0.5,0.6,1.1,1.1,1.8,1.5
			S221.5,179,222.4,179z"/>
		<path class="st6" d="M243.2,181.4c-1.3,0-2.5-0.2-3.6-0.7s-2-1.1-2.7-2c-0.7-0.8-1.3-1.8-1.7-2.9c-0.4-1.1-0.6-2.3-0.6-3.6
			c0-1.2,0.2-2.4,0.6-3.5s1-2.1,1.7-2.9c0.7-0.8,1.6-1.5,2.7-1.9s2.3-0.7,3.6-0.7c1.3,0,2.5,0.2,3.6,0.7c1.1,0.5,2,1.1,2.7,1.9
			c0.7,0.8,1.3,1.8,1.7,2.9s0.6,2.3,0.6,3.5c0,1.3-0.2,2.5-0.6,3.6c-0.4,1.1-1,2.1-1.7,2.9c-0.7,0.8-1.7,1.5-2.7,2
			C245.7,181.2,244.5,181.4,243.2,181.4z M243.2,179c0.9,0,1.8-0.2,2.5-0.6c0.7-0.4,1.3-0.9,1.8-1.5c0.5-0.6,0.9-1.3,1.1-2.1
			c0.3-0.8,0.4-1.7,0.4-2.6s-0.1-1.7-0.4-2.5c-0.3-0.8-0.6-1.5-1.1-2.1c-0.5-0.6-1.1-1.1-1.8-1.5c-0.7-0.4-1.5-0.6-2.5-0.6
			s-1.8,0.2-2.5,0.6s-1.3,0.9-1.8,1.5c-0.5,0.6-0.9,1.3-1.1,2.1c-0.3,0.8-0.4,1.7-0.4,2.5s0.1,1.7,0.4,2.6c0.3,0.8,0.6,1.5,1.1,2.1
			c0.5,0.6,1.1,1.1,1.8,1.5S242.2,179,243.2,179z"/>
		<path class="st6" d="M259.3,181v-15h-5v-2.4h12.8v2.4H262v15H259.3z"/>
		<path class="st6" d="M281.5,181v-2c-1.5,1.6-3.4,2.4-5.8,2.4c-0.7,0-1.5-0.1-2.2-0.4c-0.7-0.2-1.4-0.6-1.9-1.1
			c-0.6-0.5-1-1.1-1.4-1.8c-0.4-0.7-0.5-1.5-0.5-2.5c0-1,0.2-1.8,0.5-2.5c0.4-0.7,0.8-1.3,1.4-1.8c0.6-0.5,1.2-0.8,1.9-1.1
			c0.7-0.2,1.5-0.3,2.2-0.3c1.2,0,2.3,0.2,3.3,0.6c1,0.4,1.8,1,2.5,1.8v-3.1c0-1.2-0.4-2.1-1.2-2.7c-0.8-0.6-1.9-1-3.1-1
			c-2,0-3.8,0.8-5.3,2.4l-1.3-1.9c1.8-1.9,4.2-2.9,6.9-2.9c0.9,0,1.8,0.1,2.6,0.3s1.5,0.6,2.1,1c0.6,0.5,1.1,1.1,1.5,1.8
			c0.4,0.7,0.5,1.6,0.5,2.7v12H281.5z M276.7,179.5c1,0,1.9-0.2,2.7-0.5c0.9-0.4,1.5-0.9,2.1-1.6v-3.3c-0.5-0.7-1.2-1.3-2.1-1.6
			c-0.9-0.4-1.8-0.5-2.7-0.5c-1.3,0-2.3,0.4-3.1,1.1s-1.2,1.6-1.2,2.8c0,1.1,0.4,2,1.2,2.7C274.4,179.1,275.5,179.5,276.7,179.5z"/>
		<path class="st6" d="M289.6,181v-17.4h2.7v7.2h9.1v-7.2h2.7V181h-2.7v-7.8h-9.1v7.8H289.6z"/>
		<path class="st6" d="M309.5,181v-17.4h2.7v7.2h9.1v-7.2h2.7V181h-2.7v-7.8h-9.1v7.8H309.5z"/>
		<path class="st6" d="M332.1,163.6v6.7h6.5c0.9,0,1.7,0.1,2.4,0.4c0.7,0.3,1.3,0.7,1.7,1.2c0.5,0.5,0.8,1.1,1,1.7
			c0.2,0.6,0.3,1.3,0.3,2c0,0.7-0.1,1.4-0.4,2.1s-0.6,1.2-1,1.7s-1,0.9-1.7,1.2c-0.7,0.3-1.5,0.4-2.4,0.4h-9.2v-17.4H332.1z
			 M332.1,172.7v5.9h6.2c1,0,1.7-0.3,2.2-0.8c0.5-0.5,0.8-1.3,0.8-2.1c0-0.8-0.2-1.5-0.7-2.1c-0.5-0.6-1.2-0.8-2.3-0.8H332.1z
			 M346.9,181v-17.4h2.7V181H346.9z"/>
		<path class="st6" d="M362.8,181.4c-1.3,0-2.5-0.2-3.6-0.7c-1.1-0.4-2-1.1-2.8-1.9c-0.8-0.8-1.4-1.8-1.8-2.9
			c-0.4-1.1-0.7-2.4-0.7-3.7c0-1.2,0.2-2.4,0.6-3.5c0.4-1.1,1-2.1,1.8-2.9c0.8-0.8,1.7-1.5,2.7-1.9s2.2-0.7,3.4-0.7
			c1.3,0,2.5,0.2,3.5,0.7c1,0.5,1.9,1.1,2.6,2c0.7,0.8,1.3,1.8,1.6,3c0.4,1.1,0.6,2.4,0.6,3.7v0.7h-14.1c0,0.8,0.2,1.6,0.5,2.3
			c0.3,0.7,0.7,1.4,1.3,1.9s1.2,1,1.9,1.3c0.7,0.3,1.6,0.5,2.5,0.5c1,0,2-0.2,2.9-0.6c0.9-0.4,1.8-0.9,2.4-1.6l1.3,1.8
			c-0.9,0.9-1.9,1.5-3,2C365.6,181.2,364.3,181.4,362.8,181.4z M368.2,171.2c0-0.6-0.1-1.3-0.3-2c-0.2-0.7-0.6-1.3-1-1.9
			c-0.5-0.6-1.1-1-1.8-1.4c-0.7-0.4-1.6-0.5-2.6-0.5c-0.9,0-1.8,0.2-2.4,0.5c-0.7,0.4-1.3,0.8-1.7,1.4s-0.8,1.2-1.1,1.9
			c-0.3,0.7-0.4,1.4-0.4,2H368.2z"/>
		<path class="st6" d="M390.1,163.2c1,0,1.8,0.3,2.7,0.8c0.8,0.5,1.5,1.3,2.1,2.3V157h2.7v9.2c0.5-0.9,1.2-1.6,2-2.2
			c0.8-0.6,1.7-0.8,2.7-0.8c0.9,0,1.7,0.2,2.5,0.6c0.8,0.4,1.4,1,2,1.8s1,1.7,1.3,2.9c0.3,1.1,0.5,2.4,0.5,3.8s-0.2,2.7-0.5,3.8
			c-0.3,1.1-0.7,2.1-1.3,2.9s-1.2,1.4-2,1.8c-0.8,0.4-1.6,0.6-2.5,0.6c-1,0-1.8-0.3-2.7-0.8c-0.8-0.5-1.5-1.3-2-2.3v9.3h-2.7l0-9.2
			c-0.5,0.9-1.2,1.6-2,2.2c-0.8,0.6-1.7,0.8-2.7,0.8c-0.9,0-1.8-0.2-2.5-0.6c-0.8-0.4-1.4-1-2-1.8c-0.6-0.8-1-1.7-1.3-2.9
			c-0.3-1.1-0.5-2.4-0.5-3.8c0-1.4,0.2-2.7,0.5-3.8c0.3-1.1,0.7-2.1,1.3-2.9c0.6-0.8,1.2-1.4,2-1.8
			C388.4,163.4,389.2,163.2,390.1,163.2z M390.9,165.6c-0.7,0-1.3,0.2-1.8,0.5c-0.5,0.3-1,0.8-1.4,1.4c-0.4,0.6-0.7,1.3-0.8,2.1
			c-0.2,0.8-0.3,1.7-0.3,2.7s0.1,1.8,0.3,2.7s0.5,1.5,0.8,2.1c0.4,0.6,0.8,1.1,1.4,1.4c0.5,0.3,1.1,0.5,1.8,0.5
			c0.8,0,1.6-0.3,2.4-0.8s1.3-1.2,1.6-2v-7.8c-0.4-0.8-0.9-1.4-1.6-2C392.5,165.9,391.7,165.6,390.9,165.6z M401.5,179
			c0.7,0,1.3-0.2,1.8-0.5c0.5-0.3,1-0.8,1.3-1.4s0.7-1.3,0.8-2.1c0.2-0.8,0.3-1.7,0.3-2.7s-0.1-1.8-0.3-2.7
			c-0.2-0.8-0.5-1.5-0.8-2.1c-0.4-0.6-0.8-1.1-1.3-1.4c-0.5-0.3-1.1-0.5-1.8-0.5c-0.8,0-1.6,0.3-2.3,0.8s-1.3,1.2-1.6,2v7.8
			c0.4,0.8,0.9,1.4,1.6,2S400.7,179,401.5,179z"/>
		<path class="st6" d="M411.2,179.2c0.8,0,1.5-0.5,2-1.6c0.5-1.1,1-2.9,1.3-5.4l1.1-8.6h12.1V181h-2.7v-15h-7l-0.8,6.5
			c-0.2,1.6-0.5,3-0.8,4.1c-0.3,1.1-0.8,2-1.2,2.7c-0.5,0.7-1.1,1.2-1.7,1.5c-0.7,0.3-1.4,0.5-2.3,0.5V179.2z"/>
		<path class="st6" d="M441,181.4c-1.3,0-2.5-0.2-3.6-0.7c-1.1-0.4-2-1.1-2.8-1.9c-0.8-0.8-1.4-1.8-1.8-2.9
			c-0.4-1.1-0.7-2.4-0.7-3.7c0-1.2,0.2-2.4,0.6-3.5c0.4-1.1,1-2.1,1.8-2.9c0.8-0.8,1.7-1.5,2.7-1.9c1-0.5,2.2-0.7,3.4-0.7
			c1.3,0,2.5,0.2,3.5,0.7s1.9,1.1,2.6,2c0.7,0.8,1.3,1.8,1.6,3c0.4,1.1,0.6,2.4,0.6,3.7v0.7H435c0,0.8,0.2,1.6,0.5,2.3
			c0.3,0.7,0.7,1.4,1.3,1.9s1.2,1,1.9,1.3s1.6,0.5,2.5,0.5c1,0,2-0.2,2.9-0.6c0.9-0.4,1.8-0.9,2.4-1.6l1.3,1.8c-0.9,0.9-1.9,1.5-3,2
			C443.7,181.2,442.4,181.4,441,181.4z M446.4,171.2c0-0.6-0.1-1.3-0.3-2s-0.6-1.3-1-1.9c-0.5-0.6-1.1-1-1.8-1.4
			c-0.7-0.4-1.6-0.5-2.6-0.5c-0.9,0-1.8,0.2-2.4,0.5c-0.7,0.4-1.3,0.8-1.7,1.4c-0.5,0.6-0.8,1.2-1.1,1.9c-0.3,0.7-0.4,1.4-0.4,2
			H446.4z"/>
		<path class="st6" d="M465.3,181l-6.3-7.8l-2.9,2.8v5h-2.7v-17.4h2.7v9.3l9.1-9.3h3.4l-7.7,7.9l7.7,9.5H465.3z"/>
		<path class="st6" d="M479.5,181.4c-1.3,0-2.5-0.2-3.5-0.7c-1.1-0.5-2-1.1-2.7-1.9c-0.8-0.8-1.3-1.8-1.8-2.9s-0.6-2.3-0.6-3.6
			s0.2-2.5,0.6-3.6c0.4-1.1,1-2.1,1.8-2.9c0.8-0.8,1.7-1.5,2.7-1.9c1.1-0.5,2.3-0.7,3.5-0.7c1.6,0,2.9,0.3,3.9,0.9
			c1,0.6,1.8,1.3,2.5,2.2l-1.8,1.7c-0.6-0.8-1.2-1.4-2-1.7c-0.7-0.4-1.6-0.5-2.5-0.5c-0.9,0-1.8,0.2-2.5,0.5
			c-0.7,0.3-1.4,0.8-1.9,1.4c-0.5,0.6-0.9,1.3-1.2,2.1c-0.3,0.8-0.4,1.7-0.4,2.7s0.1,1.9,0.4,2.7c0.3,0.8,0.7,1.5,1.2,2.1
			c0.5,0.6,1.2,1.1,1.9,1.4c0.7,0.3,1.6,0.5,2.5,0.5c1.8,0,3.3-0.8,4.4-2.3l1.8,1.7c-0.7,0.9-1.5,1.6-2.5,2.2
			C482.4,181.1,481.1,181.4,479.5,181.4z"/>
		<path class="st6" d="M501.5,181l-6.3-7.8l-2.9,2.8v5h-2.7v-17.4h2.7v9.3l9.1-9.3h3.4l-7.7,7.9l7.7,9.5H501.5z"/>
		<path class="st6" d="M515.6,181.4c-1.3,0-2.5-0.2-3.6-0.7c-1.1-0.5-2-1.1-2.7-2s-1.3-1.8-1.7-2.9c-0.4-1.1-0.6-2.3-0.6-3.6
			c0-1.2,0.2-2.4,0.6-3.5c0.4-1.1,1-2.1,1.7-2.9c0.7-0.8,1.7-1.5,2.7-1.9c1.1-0.5,2.3-0.7,3.6-0.7s2.5,0.2,3.6,0.7s2,1.1,2.7,1.9
			c0.7,0.8,1.3,1.8,1.7,2.9c0.4,1.1,0.6,2.3,0.6,3.5c0,1.3-0.2,2.5-0.6,3.6c-0.4,1.1-1,2.1-1.7,2.9c-0.7,0.8-1.7,1.5-2.7,2
			S516.9,181.4,515.6,181.4z M515.6,179c0.9,0,1.8-0.2,2.5-0.6c0.7-0.4,1.3-0.9,1.8-1.5c0.5-0.6,0.9-1.3,1.1-2.1
			c0.3-0.8,0.4-1.7,0.4-2.6s-0.1-1.7-0.4-2.5c-0.3-0.8-0.6-1.5-1.1-2.1c-0.5-0.6-1.1-1.1-1.8-1.5c-0.7-0.4-1.5-0.6-2.5-0.6
			c-0.9,0-1.8,0.2-2.5,0.6c-0.7,0.4-1.3,0.9-1.8,1.5s-0.9,1.3-1.1,2.1c-0.3,0.8-0.4,1.7-0.4,2.5s0.1,1.7,0.4,2.6
			c0.3,0.8,0.6,1.5,1.1,2.1c0.5,0.6,1.1,1.1,1.8,1.5C513.9,178.8,514.7,179,515.6,179z"/>
		<path class="st6" d="M528.6,181v-17.4h2.7v13.3l9.1-13.3h2.7V181h-2.7v-13.5l-9.2,13.5H528.6z"/>
		<path class="st6" d="M548.5,181v-17.4h2.7v7.2h9.1v-7.2h2.7V181h-2.7v-7.8h-9.1v7.8H548.5z"/>
		<path class="st6" d="M571.1,163.6v6.7h6.5c0.9,0,1.7,0.1,2.4,0.4c0.7,0.3,1.3,0.7,1.7,1.2c0.5,0.5,0.8,1.1,1,1.7
			c0.2,0.6,0.3,1.3,0.3,2c0,0.7-0.1,1.4-0.4,2.1c-0.2,0.7-0.6,1.2-1,1.7c-0.5,0.5-1,0.9-1.7,1.2c-0.7,0.3-1.5,0.4-2.4,0.4h-9.2
			v-17.4H571.1z M571.1,172.7v5.9h6.2c1,0,1.7-0.3,2.2-0.8c0.5-0.5,0.8-1.3,0.8-2.1c0-0.8-0.2-1.5-0.7-2.1c-0.5-0.6-1.2-0.8-2.3-0.8
			H571.1z M585.9,181v-17.4h2.7V181H585.9z"/>
		<path class="st6" d="M38.2,224.2v-17.4h2.7v7.2H50v-7.2h2.7v17.4H50v-7.8h-9.1v7.8H38.2z"/>
		<path class="st6" d="M68.9,224.2v-2c-1.5,1.6-3.4,2.4-5.8,2.4c-0.7,0-1.5-0.1-2.2-0.4c-0.7-0.2-1.4-0.6-1.9-1.1
			c-0.6-0.5-1-1.1-1.4-1.8c-0.4-0.7-0.5-1.5-0.5-2.5c0-1,0.2-1.8,0.5-2.5c0.4-0.7,0.8-1.3,1.4-1.8c0.6-0.5,1.2-0.8,1.9-1.1
			c0.7-0.2,1.5-0.3,2.2-0.3c1.2,0,2.3,0.2,3.3,0.6c1,0.4,1.8,1,2.5,1.8v-3.1c0-1.2-0.4-2.1-1.2-2.7c-0.8-0.6-1.9-1-3.1-1
			c-2,0-3.8,0.8-5.3,2.4l-1.3-1.9c1.8-1.9,4.2-2.9,6.9-2.9c0.9,0,1.8,0.1,2.6,0.3s1.5,0.6,2.1,1c0.6,0.5,1.1,1.1,1.5,1.8
			c0.4,0.7,0.5,1.6,0.5,2.7v12H68.9z M64.2,222.7c1,0,1.9-0.2,2.7-0.5c0.9-0.4,1.5-0.9,2.1-1.6v-3.3c-0.5-0.7-1.2-1.3-2.1-1.6
			c-0.9-0.4-1.8-0.5-2.7-0.5c-1.3,0-2.3,0.4-3.1,1.1s-1.2,1.6-1.2,2.8c0,1.1,0.4,2,1.2,2.7C61.9,222.3,62.9,222.7,64.2,222.7z"/>
		<path class="st6" d="M98.2,224.2l-6.3-7.8l-2.9,2.8v5h-2.7v-17.4H89v9.3l9.1-9.3h3.4l-7.7,7.9l7.7,9.5H98.2z"/>
		<path class="st6" d="M113.4,224.6c-1.2,0-2.3-0.3-3.3-0.8c-1-0.5-1.9-1.3-2.6-2.3v9.3h-2.7v-24h2.7v2.6c0.6-0.9,1.5-1.6,2.5-2.2
			c1-0.6,2.2-0.8,3.4-0.8c1.2,0,2.2,0.2,3.1,0.6c0.9,0.4,1.8,1,2.4,1.8c0.7,0.8,1.2,1.7,1.6,2.9c0.4,1.1,0.6,2.4,0.6,3.8
			s-0.2,2.7-0.6,3.8c-0.4,1.1-0.9,2.1-1.6,2.9c-0.7,0.8-1.5,1.4-2.4,1.8C115.6,224.4,114.6,224.6,113.4,224.6z M112.7,222.2
			c0.9,0,1.6-0.2,2.3-0.5c0.7-0.3,1.3-0.8,1.8-1.4c0.5-0.6,0.8-1.3,1.1-2.1s0.4-1.7,0.4-2.7s-0.1-1.8-0.4-2.7
			c-0.3-0.8-0.6-1.5-1.1-2.1c-0.5-0.6-1.1-1.1-1.8-1.4c-0.7-0.3-1.5-0.5-2.3-0.5c-1.1,0-2.1,0.3-3,0.8c-0.9,0.5-1.7,1.2-2.1,2v7.8
			c0.5,0.8,1.2,1.4,2.1,2C110.6,221.9,111.6,222.2,112.7,222.2z"/>
		<path class="st6" d="M124.9,228.6c0.2,0.1,0.4,0.2,0.7,0.2c0.3,0,0.5,0.1,0.8,0.1c0.6,0,1.1-0.1,1.5-0.4c0.4-0.3,0.8-0.7,1.1-1.5
			l1.2-2.6l-7.3-17.6h2.9l5.8,14.3l5.8-14.3h3l-8.7,20.9c-0.5,1.3-1.2,2.2-2.1,2.7c-0.9,0.5-1.9,0.8-3,0.8c-0.3,0-0.6,0-1-0.1
			c-0.4,0-0.7-0.1-1-0.2L124.9,228.6z"/>
		<path class="st6" d="M146.2,224.2v-15h-5v-2.4H154v2.4h-5.1v15H146.2z"/>
		<path class="st6" d="M160.2,206.8v6.7h6.5c0.9,0,1.7,0.1,2.4,0.4c0.7,0.3,1.3,0.7,1.7,1.2c0.5,0.5,0.8,1.1,1,1.7
			c0.2,0.6,0.3,1.3,0.3,2c0,0.7-0.1,1.4-0.4,2.1c-0.2,0.7-0.6,1.2-1,1.7c-0.5,0.5-1,0.9-1.7,1.2c-0.7,0.3-1.5,0.4-2.4,0.4h-9.2
			v-17.4H160.2z M160.2,215.9v5.9h6.2c1,0,1.7-0.3,2.2-0.8c0.5-0.5,0.8-1.3,0.8-2.1c0-0.8-0.2-1.5-0.7-2.1c-0.5-0.6-1.2-0.8-2.3-0.8
			H160.2z M175.1,224.2v-17.4h2.7v17.4H175.1z"/>
		<path class="st6" d="M191,224.6c-1.3,0-2.5-0.2-3.6-0.7c-1.1-0.4-2-1.1-2.8-1.9c-0.8-0.8-1.4-1.8-1.8-2.9
			c-0.4-1.1-0.7-2.4-0.7-3.7c0-1.2,0.2-2.4,0.6-3.5s1-2.1,1.8-2.9c0.8-0.8,1.7-1.5,2.7-1.9c1-0.5,2.2-0.7,3.4-0.7
			c1.3,0,2.5,0.2,3.5,0.7c1,0.5,1.9,1.1,2.6,2c0.7,0.8,1.3,1.8,1.6,3c0.4,1.1,0.6,2.4,0.6,3.7v0.7H185c0,0.8,0.2,1.6,0.5,2.3
			c0.3,0.7,0.7,1.4,1.3,1.9s1.2,1,1.9,1.3c0.7,0.3,1.6,0.5,2.5,0.5c1,0,2-0.2,2.9-0.6s1.8-0.9,2.4-1.6l1.3,1.8c-0.9,0.9-1.9,1.5-3,2
			S192.5,224.6,191,224.6z M196.4,214.4c0-0.6-0.1-1.3-0.3-2c-0.2-0.7-0.6-1.3-1-1.9c-0.5-0.6-1.1-1-1.8-1.4
			c-0.7-0.4-1.6-0.5-2.6-0.5c-0.9,0-1.8,0.2-2.4,0.5c-0.7,0.4-1.3,0.8-1.7,1.4c-0.5,0.6-0.8,1.2-1.1,1.9c-0.3,0.7-0.4,1.4-0.4,2
			H196.4z"/>
		<path class="st6" d="M224.5,224.2v-15h-9.1v15h-2.7v-17.4h14.5v17.4H224.5z"/>
		<path class="st6" d="M241.2,224.6c-1.2,0-2.3-0.3-3.3-0.8c-1-0.5-1.9-1.3-2.6-2.3v9.3h-2.7v-24h2.7v2.6c0.6-0.9,1.5-1.6,2.5-2.2
			c1-0.6,2.2-0.8,3.4-0.8c1.2,0,2.2,0.2,3.1,0.6c0.9,0.4,1.8,1,2.4,1.8c0.7,0.8,1.2,1.7,1.6,2.9c0.4,1.1,0.6,2.4,0.6,3.8
			s-0.2,2.7-0.6,3.8c-0.4,1.1-0.9,2.1-1.6,2.9c-0.7,0.8-1.5,1.4-2.4,1.8C243.4,224.4,242.3,224.6,241.2,224.6z M240.5,222.2
			c0.9,0,1.6-0.2,2.3-0.5c0.7-0.3,1.3-0.8,1.8-1.4c0.5-0.6,0.8-1.3,1.1-2.1s0.4-1.7,0.4-2.7s-0.1-1.8-0.4-2.7
			c-0.3-0.8-0.6-1.5-1.1-2.1c-0.5-0.6-1.1-1.1-1.8-1.4c-0.7-0.3-1.5-0.5-2.3-0.5c-1.1,0-2.1,0.3-3,0.8c-0.9,0.5-1.7,1.2-2.1,2v7.8
			c0.5,0.8,1.2,1.4,2.1,2C238.4,221.9,239.4,222.2,240.5,222.2z"/>
		<path class="st6" d="M253.2,224.2v-17.4h2.7v13.3l9.1-13.3h2.7v17.4H265v-13.5l-9.2,13.5H253.2z"/>
		<path class="st6" d="M279.2,224.6c-1.8,0-3.3-0.3-4.6-0.8c-1.3-0.5-2.4-1.2-3.3-2.1l1.3-1.7c0.8,0.8,1.8,1.3,2.9,1.7
			c1.1,0.4,2.3,0.6,3.6,0.6c1.6,0,2.8-0.3,3.7-0.8c0.9-0.6,1.4-1.3,1.4-2.2c0-0.5-0.1-1-0.4-1.3s-0.7-0.7-1.2-0.9
			c-0.5-0.2-1.1-0.4-1.7-0.5c-0.7-0.1-1.4-0.1-2.1-0.1H275v-2.2h3.9c0.7,0,1.4-0.1,2-0.2c0.6-0.1,1.2-0.3,1.6-0.5
			c0.5-0.2,0.8-0.5,1.1-0.9c0.3-0.4,0.4-0.8,0.4-1.3c0-0.4-0.1-0.8-0.4-1.1c-0.3-0.3-0.6-0.6-1.1-0.9c-0.4-0.2-1-0.4-1.6-0.6
			c-0.6-0.1-1.3-0.2-2-0.2c-2.4,0-4.4,0.7-5.8,2.2l-1.4-1.7c0.8-0.8,1.8-1.5,3-2s2.6-0.8,4.1-0.8c1.2,0,2.3,0.1,3.2,0.3
			c1,0.2,1.8,0.5,2.5,0.9c0.7,0.4,1.3,0.9,1.7,1.5s0.6,1.2,0.6,2c0,0.6-0.2,1.2-0.5,1.7c-0.3,0.5-0.7,0.9-1.1,1.3
			c-0.5,0.3-1,0.6-1.5,0.8c-0.6,0.2-1.1,0.3-1.6,0.4c0.5,0,1,0.2,1.6,0.3c0.6,0.2,1.1,0.4,1.6,0.8s0.9,0.8,1.3,1.3
			c0.3,0.5,0.5,1.1,0.5,1.9c0,0.7-0.2,1.4-0.5,2s-0.9,1.2-1.6,1.6s-1.5,0.8-2.5,1.1C281.6,224.5,280.5,224.6,279.2,224.6z"/>
		<path class="st6" d="M294.3,206.8v6.7h6.5c0.9,0,1.7,0.1,2.4,0.4c0.7,0.3,1.3,0.7,1.7,1.2c0.5,0.5,0.8,1.1,1,1.7
			c0.2,0.6,0.3,1.3,0.3,2c0,0.7-0.1,1.4-0.4,2.1c-0.2,0.7-0.6,1.2-1,1.7c-0.5,0.5-1,0.9-1.7,1.2c-0.7,0.3-1.5,0.4-2.4,0.4h-9.2
			v-17.4H294.3z M294.3,215.9v5.9h6.2c1,0,1.7-0.3,2.2-0.8c0.5-0.5,0.8-1.3,0.8-2.1c0-0.8-0.2-1.5-0.7-2.1c-0.5-0.6-1.2-0.8-2.3-0.8
			H294.3z M309.1,224.2v-17.4h2.7v17.4H309.1z"/>
	</g>
</g>
</svg>
