<svg id="Layer_1" data-name="Layer 1" xmlns="http://www.w3.org/2000/svg" viewBox="0 0 40.33 24.67"><defs><style>.cls-1{fill:#fff;}</style></defs><title>vk</title><path class="cls-1" d="M38.14,3.85c-0.26-.75-1.9-0.54-1.9-0.54l-5.44,0a1.56,1.56,0,0,0-.71.19,1.59,1.59,0,0,0-.48.59S28.7,5.92,27.54,7.89C25.12,12,23.7,12,23.3,11.74c-0.92-.6-0.69-2.41-0.69-3.71,0-4,.6-5.71-1.18-6.15,0,0-.57,0-2.08,0a11.67,11.67,0,0,0-4.52.47c-0.62.3-1.1,1-.8,1a2.42,2.42,0,0,1,1.6.82,5.34,5.34,0,0,1,.54,2.49s0.32,4.74-.74,5.34c-0.74.41-1.74-.42-3.9-4.19A27.18,27.18,0,0,1,9.79,4.22a1.58,1.58,0,0,0-.45-0.62A2,2,0,0,0,8.5,3.28H3.33a1.68,1.68,0,0,0-1.07.34,1,1,0,0,0,0,.88s3.83,9,8.42,13.85A14,14,0,0,0,20,22.75h1.39a1.2,1.2,0,0,0,1-.22,1.19,1.19,0,0,0,.29-0.76s-0.43-3.42.92-3.85,3.8,2.84,5.61,4.09a3.4,3.4,0,0,0,2.41.74l4.83-.07s2.52-.16,1.33-2.17c-0.1-.16-0.7-1.49-3.6-4.2h0c-3-2.84-2.62-2.39,1-7.31C37.47,6,38.41,4.64,38.14,3.85Z"/></svg>